<svg version="1.1" xmlns="http://www.w3.org/2000/svg" fill-rule="evenodd" clip-rule="evenodd" height="1024" width="1024" viewBox="0 0 1024 1024"><path d="M285.07904 447.52384l-90.33856-93.22624h-52.44672v196.67584h52.44672V410.2272l89.79456 94.87488 93.77024-95.1744v141.04704h52.448v-40.71808c-16.2048-16.5504-26.22336-39.18208-26.22336-64.17664 0-24.99072 10.01984-47.62368 26.22336-64.17664v-27.60576h-52.448l-93.22624 93.22624z m255.15136-59.69792l-1.44896 0.27904-1.37344 0.34304-1.3696 0.45184-1.2736 0.45056-1.27744 0.43648-1.28 0.64-1.20704 0.51584-1.07008 0.62336-1.11488 0.70144-1.02784 0.7296-1.01632 0.82304-0.8384 0.768-1.30816 1.25824-1.08928 1.17248-1.0432 1.13536-0.95616 1.152-0.89344 1.18528-0.7872 1.152-0.76288 1.152-0.35712 0.512-0.33024 0.62336-0.71424 1.09184-0.56576 1.08928-0.50304 1.0304-0.43904 1.08928-0.43008 0.99584-0.35456 0.9344-0.33024 0.9984-0.33536 0.91776-0.44288 1.664-0.3264 1.60768-0.17664 1.3376-0.18304 1.15584v2.24l-0.3136 0.3456-0.2816 0.4672-0.224 0.41984-0.192 0.45184-0.2432 0.98304-0.26624 0.90368-0.08576 0.8064-0.0576 0.59648v0.63616l-0.6144 0.90624-0.4352 0.9024-0.3264 0.8704-0.2432 0.77824-0.18688 0.7488-0.1792 0.70144v1.78944l0.10496 0.4352 0.15104 0.79744 0.1856 0.608-0.33664 0.26624-0.96 0.7296-1.2672 1.18144-0.77824 0.70144-0.75904 0.68864-0.52096 0.54656-0.4288 0.48-0.92288 1.01504-0.8768 1.0112-0.68864 0.87168-0.82304 1.26336-0.78464 1.13408-0.77824 1.26464-0.65664 1.16864-0.54144 1.24544-0.57856 1.152-0.41984 1.13664-0.4416 1.184-0.32896 1.15328-0.3264 1.184-0.288 1.02784-0.16 1.10848-0.17664 1.024-0.1536 0.9984-0.0896 1.94688v2.6176l0.0896 0.79488 0.2432 1.3568 0.08576 0.5952 0.16 0.6016 0.1984 0.576 0.18304 0.4032 0.29056 0.7488 0.224 0.1536 0.13696 0.3136 0.1728 0.07808h0.1792l0.76544-0.07808 0.7744-0.1984 0.65664-0.2688 0.6848-0.448 0.6272-0.42368 0.56704-0.5504 0.61184-0.5696 0.51584-0.5888 0.49536-0.672 0.448-0.608 0.41984-0.4992 0.26368-0.57984 0.50816-0.9472 0.16-0.39168 0.09216-0.23296 0.0448-0.2624 0.11904-0.22016 0.09216-0.0448 0.1728-0.09344h0.11136l0.0448 0.09344h0.08704l0.08576 0.0448 0.288 1.2928 0.31104 1.04064 0.416 1.0944 0.4224 0.98688 0.35328 0.9728 0.54272 0.8576 0.39808 0.9024 0.448 0.82688 0.51584 0.7168 0.39424 0.69248 1.0432 1.2736 0.9088 1.14048 0.87808 0.8832 0.864 0.7936 0.7488 0.6272 1.11744 1.0048 0.448 0.224 0.15104 0.2176v0.1024l-0.10624 0.10368h-0.0448l-0.224 0.0704-0.83712 0.07168-0.7744 0.10112-0.65664 0.09728-0.6848 0.1536-0.59904 0.192-0.5952 0.1856-0.52096 0.28288-0.41088 0.2624-0.52864 0.1728-0.3264 0.2752-0.352 0.2176-0.38016 0.3136-0.47488 0.608-0.1792 0.2816-0.2176 0.2496-0.30336 0.6336-0.16384 0.5312-0.1984 0.53248-0.0384 0.4672v0.8704l-0.0896 0.4352v0.44288l-0.1024 0.4352v0.384l0.1024 0.4224 0.0896 0.37888 0.2368 0.7296 0.16384 0.3392 0.2112 0.34688 0.23424 0.3392 0.256 0.3008 0.34304 0.3392 0.256 0.2816 0.75904 0.576 0.7616 0.48 0.87424 0.44288 0.9408 0.3904 0.9984 0.416 1.1072 0.2624 1.1008 0.3776 1.19168 0.2496 1.19168 0.18048 1.22496 0.19072 1.26464 0.18688 2.49728 0.2688 2.57408 0.0448h4.55808l1.11488-0.0448 0.95616-0.1152 0.92544-0.0704 0.86528-0.0832 1.3888-0.2752 0.9984-0.28288 0.9536-0.2496 1.75488-0.7488 0.79616-0.3072 0.75904-0.3904 1.25312-0.71808 1.12896-0.576 0.83584-0.5504 0.61184-0.57728 0.95744 0.1088 0.73984 0.0832 1.46304 0.1088h1.2672l0.44288 0.0896 0.45312 0.1856 0.71808 0.2688 0.8 0.2816 1.52192 0.48 1.55392 0.576 1.51424 0.44928 1.52576 0.32 1.56032 0.3968 1.6128 0.23808 1.53344 0.1728 1.53728 0.21632 1.43232 0.1408 1.536 0.0896h4.26112l1.37344-0.1664 1.34528-0.064 1.29408-0.21632 1.1904-0.27008 1.19424-0.2624 1.14304-0.2752 0.47744-0.1408 0.52864-0.1792 0.99072-0.39808 0.8832-0.4224 0.832-0.4352 0.77696-0.4544 0.6848-0.5312 0.2688-0.2816 0.32768-0.38528 0.41472-0.5184 0.45184-0.64 0.1664-0.32 0.07168-0.2688 0.192-0.3456 0.07424-0.3712v-0.3584l0.09216-0.35712-0.09216-0.52608-0.07424-0.4544-0.192-0.5312-0.14976-0.4352-0.28288-0.53248-0.34304-0.48-0.32896-0.42368-0.44672-0.352-0.91136-0.8128-1.02528-0.7808-1.03424-0.6208-1.08928-0.64-2.48576-1.24928-0.59648-0.3712-0.16384-0.1728-0.10496-0.1088 1.19808-1.2288 0.5184-0.608 0.4288-0.55808 0.83456-1.2352 0.79104-1.26208 0.66816-1.12 0.62976-1.0752 0.84608-2.15168 0.6592-1.78688 0.43264-1.2672 0.25216-0.416 0.14976-0.3392 0.26368-0.20736h0.10752l0.07552 0.04736 0.64 1.29408 0.56832 1.248 0.4032 0.704 0.416 0.6016 0.4096 0.7488 0.53248 0.736 0.44416 0.512 0.2688 0.2752 0.26624 0.2496 0.24064 0.1856 0.23296 0.1728 0.51328 0.27008 0.26496 0.0896h0.416l0.2688-0.0896 0.33792-0.1728 0.36736-0.1728 0.3072-0.2816 0.288-0.32768 0.32256-0.40192 0.256-0.3072 0.288-0.5056 0.21632-0.4032 0.256-0.576 0.13568-0.48 0.3712-1.184 0.24192-1.3056 0.17408-1.45408 0.11904-0.84096v-2.36672l-0.18176-1.6832-0.26368-1.89824-0.3328-1.85344-0.26496-0.9536-0.256-1.0112-0.33664-0.9664-0.34816-1.0752-0.39808-1.01248-0.4352-1.04064-0.77312-1.69984-0.68736-1.49504-0.68608-1.3376-0.59776-1.24928-0.6848-1.13664-0.50304-1.0432-1.06624-1.5552-1.33888-2.0736-0.30976-0.51328-0.10496-0.2176v-0.17152l0.224-0.70144 0.30976-0.62336 0.2688-1.2288 0.15104-0.63744v-0.65664l0.07936-0.52736v-0.53248l-0.07936-0.60928-0.08704-0.4992-0.19456-1.00864-0.256-0.98304-0.23424-0.90368-0.36352-0.87424-0.41344-0.7296-0.32256-0.68864-0.36224-0.6528-0.56576-0.96384-0.2112-0.34304-0.064-0.29696-0.25984-1.8688-0.16896-1.23264-0.192-1.5232-0.29824-1.5744-0.4672-1.8048-0.26496-1.01504-0.20736-0.85376-0.29312-0.9984-0.33152-1.05728-0.3264-0.98304-0.4224-1.056-0.85888-2.04288-0.50688-0.9664-0.61184-1.1072-0.576-0.94848-0.576-1.0752-0.8128-0.9984-0.68864-0.96384-0.83584-0.99584-0.8512-0.90624-0.8576-0.8704-1.02272-0.90624-0.53376-0.3264-0.50688-0.45184-1.09568-0.7936-1.27232-0.8576-1.2992-0.77696-1.33888-0.70144-1.46304-0.64-1.37344-0.60928-1.42976-0.52864-1.56288-0.4352-1.43104-0.3904-1.5232-0.3392-1.44-0.3584-1.55392-0.1728-1.52192-0.18944-1.51808-0.20096h-4.54656l-1.53856 0.08832-1.44384 0.20608-1.44128 0.2048-1.46176 0.24192z m70.8096 97.58976c-12.21248 0-19.93984 10.04544-19.93984 10.04544-19.82464 18.1312-46.1376 29.29024-75.12064 29.29024-22.38464 0-43.18464-6.66496-60.64768-18.02368 19.87584 30.55232 54.26304 50.80192 93.4272 50.80192 33.4464 0 63.37152-14.80064 83.80032-38.1312 0 0 2.14272-7.86304 1.42848-14.3168-1.184-10.67136-10.27456-19.66592-22.94784-19.66592z m75.392 65.55776h45.89312V406.7456h-45.89312v144.22784zM778.2144 334.6304v216.34432h45.89184V334.6304H778.2144z m-68.83584 0c-16.29312 0-29.50144 13.20832-29.50144 29.50144 0 16.29312 13.20704 29.50144 29.50144 29.50144s29.50144-13.20832 29.50144-29.50144c0-16.29312-13.20704-29.50144-29.50144-29.50144z m-138.8544 1.9008s-7.86688 2.09408-13.10208 5.93152c-8.65664 6.3488-11.9424 18.6496-5.66528 29.52448 6.05056 10.47808 18.57792 12.08704 18.57792 12.08704 25.52576 7.9424 48.22144 24.94336 62.58304 49.81248 11.08864 19.21024 15.6288 40.38912 14.43584 61.056 16.6144-32.33024 17.11488-71.9616-2.28992-105.57312-16.56832-28.69888-44.21632-46.97344-74.53952-52.8384z m-87.63136 143.04c6.07872-10.42944 1.2672-21.98528 1.2672-21.98528-5.76896-25.8752-2.29248-53.8496 12.13184-78.60736 11.14368-19.12064 27.2384-33.59872 45.72288-42.91456-36.23168 1.90848-70.80064 21.29408-90.29248 54.74944-16.64512 28.56704-18.77376 61.42592-8.832 90.38336 0 0 5.71136 5.70496 11.62624 8.27776 9.78688 4.25088 22.06976 0.9216 28.37632-9.90336z"></path></svg>