<svg version="1.1" xmlns="http://www.w3.org/2000/svg" fill-rule="evenodd" clip-rule="evenodd" height="716" width="1024" viewBox="0 0 1464 1024"><path d="M174.90411 173.881279a28.054795 28.054795 0 0 0-19.872147 47.92694L440.547945 507.031963a28.09863 28.09863 0 1 0 39.744292-39.744292L194.776256 182.794521a27.908676 27.908676 0 0 0-19.872146-8.913242z m1260.420091 191.707762a28.200913 28.200913 0 0 0-28.054795 28.054795v522.082191a51.287671 51.287671 0 0 1-51.287671 51.287672H107.39726a51.287671 51.287671 0 0 1-51.287671-51.287672V107.39726a51.287671 51.287671 0 0 1 51.287671-51.287671h1241.13242a40.621005 40.621005 0 0 1 29.223745 69.406393l-352.584475 321.461187a28.858447 28.858447 0 0 0 38.86758 42.666667L1418.082192 166.575342l2.484018-2.630137A96.876712 96.876712 0 0 0 1349.114155 0.876712H107.39726A107.543379 107.543379 0 0 0 0 108.273973v808.328767a107.543379 107.543379 0 0 0 107.39726 107.39726h1248.876713a107.543379 107.543379 0 0 0 107.39726-107.39726V393.643836a28.054795 28.054795 0 0 0-28.347032-28.054795zM860.785388 426.666667h-66.630137v5.844749a73.059361 73.059361 0 0 0-37.114155-9.497717 106.374429 106.374429 0 0 0-87.671233 43.835616 162.3379 162.3379 0 0 0-32.292237 102.283105 116.894977 116.894977 0 0 0 24.840182 77.881279 84.164384 84.164384 0 0 0 67.068493 30.538812 81.388128 81.388128 0 0 0 65.315069-29.223744 65.16895 65.16895 0 0 0 60.639269 29.223744 104.767123 104.767123 0 0 0 85.041096-43.835616 169.351598 169.351598 0 0 0 33.022831-107.251142 183.086758 183.086758 0 0 0-60.49315-141.881278 217.424658 217.424658 0 0 0-150.794521-54.063927 214.940639 214.940639 0 0 0-160.730594 64.876712 224 224 0 0 0-62.977169 161.315069 205.881279 205.881279 0 0 0 60.200914 153.278539 215.525114 215.525114 0 0 0 156.785388 58.447488 290.922374 290.922374 0 0 0 113.680365-19.579909l9.936073-4.237442v-68.968037l-23.232877 10.812785a230.721461 230.721461 0 0 1-97.168949 18.849315 146.118721 146.118721 0 0 1-110.611872-40.913242 148.164384 148.164384 0 0 1-40.182649-109.442922 162.3379 162.3379 0 0 1 43.835617-116.894977 141.73516 141.73516 0 0 1 109.004566-45.881279c45.881279 0 80.365297 12.273973 105.643835 37.552512a131.506849 131.506849 0 0 1 37.552512 97.607306 128.146119 128.146119 0 0 1-14.611872 65.899543c-10.958904 18.410959-21.917808 20.60274-29.223745 20.60274-9.789954 0-11.835616-17.826484-11.835616-32.584475 0-2.191781 1.315068-20.164384 11.39726-137.643836z m-91.762557 165.260274A36.091324 36.091324 0 0 1 735.853881 613.69863a22.356164 22.356164 0 0 1-20.164383-9.789954 60.785388 60.785388 0 0 1-8.767124-35.068493 113.388128 113.388128 0 0 1 15.926941-61.954338 39.013699 39.013699 0 0 1 34.191781-21.333334c13.150685 0 27.178082 2.776256 27.178082 35.360731a142.90411 142.90411 0 0 1-15.196347 71.013699z"></path></svg>